<?xml version="1.0" encoding="UTF-8" standalone="no"?>
<!DOCTYPE svg PUBLIC "-//W3C//DTD SVG 1.1//EN"
 "http://www.w3.org/Graphics/SVG/1.1/DTD/svg11.dtd">
<!-- Generated by graphviz version 2.26.3 (20100126.1600)
 -->
<!-- Title: controllers_diagram Pages: 1 -->
<svg width="2120pt" height="1819pt"
 viewBox="0.00 0.00 2120.09 1819.00" xmlns="http://www.w3.org/2000/svg" xmlns:xlink="http://www.w3.org/1999/xlink">
<g id="graph1" class="graph" transform="scale(1 1) rotate(0) translate(4 1815)">
<title>controllers_diagram</title>
<polygon fill="white" stroke="white" points="-4,5 -4,-1815 2117.09,-1815 2117.09,5 -4,5"/>
<!-- _diagram_info -->
<g id="node1" class="node"><title>_diagram_info</title>
<text text-anchor="start" x="1868" y="-1794.3" font-family="Times Roman,serif" font-size="13.00">Controllers diagram</text>
<text text-anchor="start" x="1868" y="-1777.3" font-family="Times Roman,serif" font-size="13.00">Date: Aug 31 2013 &#45; 05:49</text>
<text text-anchor="start" x="1868" y="-1760.3" font-family="Times Roman,serif" font-size="13.00">Migration version: 104</text>
<text text-anchor="start" x="1868" y="-1743.3" font-family="Times Roman,serif" font-size="13.00">Generated by RailRoady 1.1.1</text>
<text text-anchor="start" x="1868" y="-1726.3" font-family="Times Roman,serif" font-size="13.00">http://railroady.prestonlee.com</text>
</g>
<!-- TextfilterController -->
<g id="node2" class="node"><title>TextfilterController</title>
<ellipse fill="none" stroke="black" cx="959.03" cy="-596.263" rx="103.945" ry="18.3848"/>
<text text-anchor="middle" x="959.03" y="-592.663" font-family="Times Roman,serif" font-size="14.00">TextfilterController</text>
</g>
<!-- CategoriesController -->
<g id="node3" class="node"><title>CategoriesController</title>
<ellipse fill="none" stroke="black" cx="1061.79" cy="-20.5736" rx="111.93" ry="18.3848"/>
<text text-anchor="middle" x="1061.79" y="-16.9736" font-family="Times Roman,serif" font-size="14.00">CategoriesController</text>
</g>
<!-- AuthorsController -->
<g id="node4" class="node"><title>AuthorsController</title>
<ellipse fill="none" stroke="black" cx="506.547" cy="-370.566" rx="98.9949" ry="18.3848"/>
<text text-anchor="middle" x="506.547" y="-366.966" font-family="Times Roman,serif" font-size="14.00">AuthorsController</text>
</g>
<!-- ThemeController -->
<g id="node5" class="node"><title>ThemeController</title>
<ellipse fill="none" stroke="black" cx="163.587" cy="-560.107" rx="94.0452" ry="18.3848"/>
<text text-anchor="middle" x="163.587" y="-556.507" font-family="Times Roman,serif" font-size="14.00">ThemeController</text>
</g>
<!-- BackendController -->
<g id="node6" class="node"><title>BackendController</title>
<ellipse fill="none" stroke="black" cx="1461.88" cy="-34.2841" rx="101.116" ry="18.3848"/>
<text text-anchor="middle" x="1461.88" y="-30.6841" font-family="Times Roman,serif" font-size="14.00">BackendController</text>
</g>
<!-- SetupController -->
<g id="node7" class="node"><title>SetupController</title>
<ellipse fill="none" stroke="black" cx="656.457" cy="-622.412" rx="89.0955" ry="18.3848"/>
<text text-anchor="middle" x="656.457" y="-618.812" font-family="Times Roman,serif" font-size="14.00">SetupController</text>
</g>
<!-- ContentController -->
<g id="node8" class="node"><title>ContentController</title>
<ellipse fill="none" stroke="black" cx="862.705" cy="-335.355" rx="99.9096" ry="18.3848"/>
<text text-anchor="middle" x="862.705" y="-331.755" font-family="Times Roman,serif" font-size="14.00">ContentController</text>
</g>
<!-- ContentController&#45;&gt;AuthorsController -->
<g id="edge6" class="edge"><title>ContentController&#45;&gt;AuthorsController</title>
<path fill="none" stroke="black" d="M774.208,-344.104C719.305,-349.532 649.04,-356.478 594.279,-361.892"/>
</g>
<!-- ContentController&#45;&gt;ThemeController -->
<g id="edge8" class="edge"><title>ContentController&#45;&gt;ThemeController</title>
<path fill="none" stroke="black" d="M812.707,-351.428C683.792,-392.872 341.261,-502.988 212.998,-544.222"/>
</g>
<!-- ContentController&#45;&gt;BackendController -->
<g id="edge10" class="edge"><title>ContentController&#45;&gt;BackendController</title>
<path fill="none" stroke="black" d="M897.509,-317.866C1003.41,-264.655 1320.95,-105.097 1426.98,-51.8205"/>
</g>
<!-- ArticlesController -->
<g id="node9" class="node"><title>ArticlesController</title>
<ellipse fill="none" stroke="black" cx="1192.22" cy="-350.313" rx="96.8736" ry="18.3848"/>
<text text-anchor="middle" x="1192.22" y="-346.713" font-family="Times Roman,serif" font-size="14.00">ArticlesController</text>
</g>
<!-- ContentController&#45;&gt;ArticlesController -->
<g id="edge16" class="edge"><title>ContentController&#45;&gt;ArticlesController</title>
<path fill="none" stroke="black" d="M960.233,-339.782C1003.69,-341.755 1054.68,-344.07 1097.78,-346.026"/>
</g>
<!-- GroupingController -->
<g id="node12" class="node"><title>GroupingController</title>
<ellipse fill="none" stroke="black" cx="652.429" cy="-19.5" rx="104.86" ry="18.3848"/>
<text text-anchor="middle" x="652.429" y="-15.9" font-family="Times Roman,serif" font-size="14.00">GroupingController</text>
</g>
<!-- ContentController&#45;&gt;GroupingController -->
<g id="edge22" class="edge"><title>ContentController&#45;&gt;GroupingController</title>
<path fill="none" stroke="black" d="M850.181,-316.542C812.782,-260.365 702.201,-94.2626 664.888,-38.2137"/>
</g>
<!-- XmlController -->
<g id="node10" class="node"><title>XmlController</title>
<ellipse fill="none" stroke="black" cx="1603.97" cy="-747.542" rx="79.9031" ry="18.3848"/>
<text text-anchor="middle" x="1603.97" y="-743.942" font-family="Times Roman,serif" font-size="14.00">XmlController</text>
</g>
<!-- FeedbackController -->
<g id="node11" class="node"><title>FeedbackController</title>
<ellipse fill="none" stroke="black" cx="1945.6" cy="-521.356" rx="104.86" ry="18.3848"/>
<text text-anchor="middle" x="1945.6" y="-517.756" font-family="Times Roman,serif" font-size="14.00">FeedbackController</text>
</g>
<!-- CommentsController -->
<g id="node31" class="node"><title>CommentsController</title>
<ellipse fill="none" stroke="black" cx="1912.41" cy="-75.2924" rx="111.93" ry="18.3848"/>
<text text-anchor="middle" x="1912.41" y="-71.6924" font-family="Times Roman,serif" font-size="14.00">CommentsController</text>
</g>
<!-- FeedbackController&#45;&gt;CommentsController -->
<g id="edge60" class="edge"><title>FeedbackController&#45;&gt;CommentsController</title>
<path fill="none" stroke="black" d="M1944.21,-502.757C1938.82,-430.208 1919.21,-166.659 1913.8,-93.9707"/>
</g>
<!-- TrackbacksController -->
<g id="node33" class="node"><title>TrackbacksController</title>
<ellipse fill="none" stroke="black" cx="1965.09" cy="-960.572" rx="113.137" ry="18.3848"/>
<text text-anchor="middle" x="1965.09" y="-956.972" font-family="Times Roman,serif" font-size="14.00">TrackbacksController</text>
</g>
<!-- FeedbackController&#45;&gt;TrackbacksController -->
<g id="edge62" class="edge"><title>FeedbackController&#45;&gt;TrackbacksController</title>
<path fill="none" stroke="black" d="M1946.42,-539.948C1949.6,-611.627 1961.05,-869.619 1964.25,-941.729"/>
</g>
<!-- GroupingController&#45;&gt;CategoriesController -->
<g id="edge4" class="edge"><title>GroupingController&#45;&gt;CategoriesController</title>
<path fill="none" stroke="black" d="M757.584,-19.7758C816.452,-19.9302 889.838,-20.1226 949.781,-20.2798"/>
</g>
<!-- TagsController -->
<g id="node35" class="node"><title>TagsController</title>
<ellipse fill="none" stroke="black" cx="190.502" cy="-80.1138" rx="82.0244" ry="18.3848"/>
<text text-anchor="middle" x="190.502" y="-76.5138" font-family="Times Roman,serif" font-size="14.00">TagsController</text>
</g>
<!-- GroupingController&#45;&gt;TagsController -->
<g id="edge66" class="edge"><title>GroupingController&#45;&gt;TagsController</title>
<path fill="none" stroke="black" d="M567.974,-30.5823C480.108,-42.1119 344.063,-59.9637 261.535,-70.7929"/>
</g>
<!-- Admin::TextfiltersController -->
<g id="node13" class="node"><title>Admin::TextfiltersController</title>
<ellipse fill="none" stroke="black" cx="146.5" cy="-1003.65" rx="145.163" ry="18.3848"/>
<text text-anchor="middle" x="146.5" y="-1000.05" font-family="Times Roman,serif" font-size="14.00">Admin::TextfiltersController</text>
</g>
<!-- Admin::CategoriesController -->
<g id="node14" class="node"><title>Admin::CategoriesController</title>
<ellipse fill="none" stroke="black" cx="1637.66" cy="-1123.94" rx="149.907" ry="18.3848"/>
<text text-anchor="middle" x="1637.66" y="-1120.34" font-family="Times Roman,serif" font-size="14.00">Admin::CategoriesController</text>
</g>
<!-- Admin::PostTypesController -->
<g id="node15" class="node"><title>Admin::PostTypesController</title>
<ellipse fill="none" stroke="black" cx="1965.59" cy="-1467.38" rx="145.163" ry="18.3848"/>
<text text-anchor="middle" x="1965.59" y="-1463.78" font-family="Times Roman,serif" font-size="14.00">Admin::PostTypesController</text>
</g>
<!-- Admin::UsersController -->
<g id="node16" class="node"><title>Admin::UsersController</title>
<ellipse fill="none" stroke="black" cx="1032.51" cy="-1603.26" rx="123.951" ry="18.3848"/>
<text text-anchor="middle" x="1032.51" y="-1599.66" font-family="Times Roman,serif" font-size="14.00">Admin::UsersController</text>
</g>
<!-- Admin::BaseController -->
<g id="node17" class="node"><title>Admin::BaseController</title>
<ellipse fill="none" stroke="black" cx="1072.21" cy="-1012.34" rx="120.915" ry="18.3848"/>
<text text-anchor="middle" x="1072.21" y="-1008.74" font-family="Times Roman,serif" font-size="14.00">Admin::BaseController</text>
</g>
<!-- Admin::BaseController&#45;&gt;Admin::TextfiltersController -->
<g id="edge24" class="edge"><title>Admin::BaseController&#45;&gt;Admin::TextfiltersController</title>
<path fill="none" stroke="black" d="M951.193,-1011.2C781.377,-1009.61 472.859,-1006.71 291.151,-1005.01"/>
</g>
<!-- Admin::BaseController&#45;&gt;Admin::CategoriesController -->
<g id="edge26" class="edge"><title>Admin::BaseController&#45;&gt;Admin::CategoriesController</title>
<path fill="none" stroke="black" d="M1146.43,-1026.99C1252.94,-1048.01 1448.37,-1086.58 1557.89,-1108.2"/>
</g>
<!-- Admin::BaseController&#45;&gt;Admin::PostTypesController -->
<g id="edge28" class="edge"><title>Admin::BaseController&#45;&gt;Admin::PostTypesController</title>
<path fill="none" stroke="black" d="M1109.18,-1030.03C1180.13,-1064.09 1340.18,-1141.37 1473.55,-1209.05 1647.13,-1297.13 1852.72,-1406.82 1932.06,-1449.36"/>
</g>
<!-- Admin::BaseController&#45;&gt;Admin::UsersController -->
<g id="edge30" class="edge"><title>Admin::BaseController&#45;&gt;Admin::UsersController</title>
<path fill="none" stroke="black" d="M1087.04,-1030.85C1117.77,-1071.14 1185.55,-1170.91 1185.19,-1266.53 1184.7,-1398.76 1086.13,-1536.22 1047.65,-1584.88"/>
</g>
<!-- Admin::ContentController -->
<g id="node18" class="node"><title>Admin::ContentController</title>
<ellipse fill="none" stroke="black" cx="1342.85" cy="-911.634" rx="137.179" ry="18.3848"/>
<text text-anchor="middle" x="1342.85" y="-908.034" font-family="Times Roman,serif" font-size="14.00">Admin::ContentController</text>
</g>
<!-- Admin::BaseController&#45;&gt;Admin::ContentController -->
<g id="edge34" class="edge"><title>Admin::BaseController&#45;&gt;Admin::ContentController</title>
<path fill="none" stroke="black" d="M1118.43,-995.142C1167.95,-976.716 1246.12,-947.626 1295.91,-929.098"/>
</g>
<!-- Admin::FeedbackController -->
<g id="node19" class="node"><title>Admin::FeedbackController</title>
<ellipse fill="none" stroke="black" cx="531.165" cy="-1578.7" rx="142.836" ry="18.3848"/>
<text text-anchor="middle" x="531.165" y="-1575.1" font-family="Times Roman,serif" font-size="14.00">Admin::FeedbackController</text>
</g>
<!-- Admin::BaseController&#45;&gt;Admin::FeedbackController -->
<g id="edge36" class="edge"><title>Admin::BaseController&#45;&gt;Admin::FeedbackController</title>
<path fill="none" stroke="black" d="M1054.52,-1030.86C972.566,-1116.65 630.393,-1474.83 548.724,-1560.32"/>
</g>
<!-- Admin::PagesController -->
<g id="node20" class="node"><title>Admin::PagesController</title>
<ellipse fill="none" stroke="black" cx="157.248" cy="-1488.07" rx="125.865" ry="18.3848"/>
<text text-anchor="middle" x="157.248" y="-1484.47" font-family="Times Roman,serif" font-size="14.00">Admin::PagesController</text>
</g>
<!-- Admin::BaseController&#45;&gt;Admin::PagesController -->
<g id="edge38" class="edge"><title>Admin::BaseController&#45;&gt;Admin::PagesController</title>
<path fill="none" stroke="black" d="M1049.62,-1030.84C1020.89,-1053.88 969.272,-1093.67 921.434,-1122.22 659.041,-1278.84 319.254,-1422.2 200.492,-1470.67"/>
</g>
<!-- Admin::SeoController -->
<g id="node21" class="node"><title>Admin::SeoController</title>
<ellipse fill="none" stroke="black" cx="490.094" cy="-1194.11" rx="115.966" ry="18.3848"/>
<text text-anchor="middle" x="490.094" y="-1190.51" font-family="Times Roman,serif" font-size="14.00">Admin::SeoController</text>
</g>
<!-- Admin::BaseController&#45;&gt;Admin::SeoController -->
<g id="edge40" class="edge"><title>Admin::BaseController&#45;&gt;Admin::SeoController</title>
<path fill="none" stroke="black" d="M994.533,-1026.6C908.838,-1043.69 767.768,-1075.9 652.245,-1121.86 608.86,-1139.12 560.036,-1161.25 527.405,-1176.45"/>
</g>
<!-- Admin::ProfilesController -->
<g id="node22" class="node"><title>Admin::ProfilesController</title>
<ellipse fill="none" stroke="black" cx="786.84" cy="-1122.04" rx="132.936" ry="18.3848"/>
<text text-anchor="middle" x="786.84" y="-1118.44" font-family="Times Roman,serif" font-size="14.00">Admin::ProfilesController</text>
</g>
<!-- Admin::BaseController&#45;&gt;Admin::ProfilesController -->
<g id="edge42" class="edge"><title>Admin::BaseController&#45;&gt;Admin::ProfilesController</title>
<path fill="none" stroke="black" d="M1027.31,-1029.6C974.1,-1050.06 885.932,-1083.95 832.425,-1104.52"/>
</g>
<!-- Admin::DashboardController -->
<g id="node23" class="node"><title>Admin::DashboardController</title>
<ellipse fill="none" stroke="black" cx="489.272" cy="-846.22" rx="149.907" ry="18.3848"/>
<text text-anchor="middle" x="489.272" y="-842.62" font-family="Times Roman,serif" font-size="14.00">Admin::DashboardController</text>
</g>
<!-- Admin::BaseController&#45;&gt;Admin::DashboardController -->
<g id="edge44" class="edge"><title>Admin::BaseController&#45;&gt;Admin::DashboardController</title>
<path fill="none" stroke="black" d="M1014.99,-996.032C904.261,-964.478 661.685,-895.352 548.999,-863.241"/>
</g>
<!-- Admin::ThemesController -->
<g id="node24" class="node"><title>Admin::ThemesController</title>
<ellipse fill="none" stroke="black" cx="1335.95" cy="-1209" rx="135.765" ry="18.3848"/>
<text text-anchor="middle" x="1335.95" y="-1205.4" font-family="Times Roman,serif" font-size="14.00">Admin::ThemesController</text>
</g>
<!-- Admin::BaseController&#45;&gt;Admin::ThemesController -->
<g id="edge46" class="edge"><title>Admin::BaseController&#45;&gt;Admin::ThemesController</title>
<path fill="none" stroke="black" d="M1096.55,-1030.49C1146.67,-1067.86 1260.9,-1153.04 1311.29,-1190.61"/>
</g>
<!-- Admin::ResourcesController -->
<g id="node25" class="node"><title>Admin::ResourcesController</title>
<ellipse fill="none" stroke="black" cx="1312.74" cy="-1547.46" rx="145.872" ry="18.3848"/>
<text text-anchor="middle" x="1312.74" y="-1543.86" font-family="Times Roman,serif" font-size="14.00">Admin::ResourcesController</text>
</g>
<!-- Admin::BaseController&#45;&gt;Admin::ResourcesController -->
<g id="edge48" class="edge"><title>Admin::BaseController&#45;&gt;Admin::ResourcesController</title>
<path fill="none" stroke="black" d="M1080.63,-1031.07C1117.84,-1113.85 1267.32,-1446.41 1304.39,-1528.88"/>
</g>
<!-- Admin::CacheController -->
<g id="node26" class="node"><title>Admin::CacheController</title>
<ellipse fill="none" stroke="black" cx="801.181" cy="-1468.09" rx="126.78" ry="18.3848"/>
<text text-anchor="middle" x="801.181" y="-1464.49" font-family="Times Roman,serif" font-size="14.00">Admin::CacheController</text>
</g>
<!-- Admin::BaseController&#45;&gt;Admin::CacheController -->
<g id="edge50" class="edge"><title>Admin::BaseController&#45;&gt;Admin::CacheController</title>
<path fill="none" stroke="black" d="M1060.2,-1030.96C1033.35,-1072.71 966.709,-1177.15 913.991,-1266.41 874.614,-1333.08 830.492,-1413.85 811.16,-1449.57"/>
</g>
<!-- Admin::TagsController -->
<g id="node27" class="node"><title>Admin::TagsController</title>
<ellipse fill="none" stroke="black" cx="1086.14" cy="-791.996" rx="118.794" ry="18.3848"/>
<text text-anchor="middle" x="1086.14" y="-788.396" font-family="Times Roman,serif" font-size="14.00">Admin::TagsController</text>
</g>
<!-- Admin::BaseController&#45;&gt;Admin::TagsController -->
<g id="edge52" class="edge"><title>Admin::BaseController&#45;&gt;Admin::TagsController</title>
<path fill="none" stroke="black" d="M1073.4,-993.553C1076.03,-951.924 1082.32,-852.32 1084.95,-810.735"/>
</g>
<!-- Admin::SettingsController -->
<g id="node28" class="node"><title>Admin::SettingsController</title>
<ellipse fill="none" stroke="black" cx="1617.16" cy="-1543.59" rx="137.886" ry="18.3848"/>
<text text-anchor="middle" x="1617.16" y="-1539.99" font-family="Times Roman,serif" font-size="14.00">Admin::SettingsController</text>
</g>
<!-- Admin::BaseController&#45;&gt;Admin::SettingsController -->
<g id="edge54" class="edge"><title>Admin::BaseController&#45;&gt;Admin::SettingsController</title>
<path fill="none" stroke="black" d="M1081.56,-1031.07C1100.4,-1067.73 1145.68,-1150.51 1198.35,-1208.95 1325.62,-1350.16 1516.41,-1479.06 1588.34,-1525.4"/>
</g>
<!-- Admin::SidebarController -->
<g id="node29" class="node"><title>Admin::SidebarController</title>
<ellipse fill="none" stroke="black" cx="1049.59" cy="-1266.47" rx="133.851" ry="18.3848"/>
<text text-anchor="middle" x="1049.59" y="-1262.87" font-family="Times Roman,serif" font-size="14.00">Admin::SidebarController</text>
</g>
<!-- Admin::BaseController&#45;&gt;Admin::SidebarController -->
<g id="edge56" class="edge"><title>Admin::BaseController&#45;&gt;Admin::SidebarController</title>
<path fill="none" stroke="black" d="M1070.55,-1031.03C1066.37,-1078.02 1055.44,-1200.73 1051.26,-1247.76"/>
</g>
<!-- Admin::RedirectsController -->
<g id="node30" class="node"><title>Admin::RedirectsController</title>
<ellipse fill="none" stroke="black" cx="819.286" cy="-856.27" rx="142.128" ry="18.3848"/>
<text text-anchor="middle" x="819.286" y="-852.67" font-family="Times Roman,serif" font-size="14.00">Admin::RedirectsController</text>
</g>
<!-- Admin::BaseController&#45;&gt;Admin::RedirectsController -->
<g id="edge58" class="edge"><title>Admin::BaseController&#45;&gt;Admin::RedirectsController</title>
<path fill="none" stroke="black" d="M1042.71,-994.13C994.099,-964.138 897.737,-904.678 848.998,-874.604"/>
</g>
<!-- ApplicationController -->
<g id="node32" class="node"><title>ApplicationController</title>
<ellipse fill="none" stroke="black" cx="1281.4" cy="-626.961" rx="113.844" ry="18.3848"/>
<text text-anchor="middle" x="1281.4" y="-623.361" font-family="Times Roman,serif" font-size="14.00">ApplicationController</text>
</g>
<!-- ApplicationController&#45;&gt;TextfilterController -->
<g id="edge2" class="edge"><title>ApplicationController&#45;&gt;TextfilterController</title>
<path fill="none" stroke="black" d="M1182.93,-617.584C1140.9,-613.581 1092.12,-608.937 1050.85,-605.007"/>
</g>
<!-- ApplicationController&#45;&gt;SetupController -->
<g id="edge12" class="edge"><title>ApplicationController&#45;&gt;SetupController</title>
<path fill="none" stroke="black" d="M1167.5,-626.132C1046.22,-625.249 856.782,-623.87 745.814,-623.063"/>
</g>
<!-- ApplicationController&#45;&gt;ContentController -->
<g id="edge14" class="edge"><title>ApplicationController&#45;&gt;ContentController</title>
<path fill="none" stroke="black" d="M1255.53,-608.94C1180.47,-556.663 963.25,-405.38 888.408,-353.256"/>
</g>
<!-- ApplicationController&#45;&gt;XmlController -->
<g id="edge18" class="edge"><title>ApplicationController&#45;&gt;XmlController</title>
<path fill="none" stroke="black" d="M1326.93,-643.982C1389.45,-667.352 1501.02,-709.057 1561.75,-731.759"/>
</g>
<!-- ApplicationController&#45;&gt;FeedbackController -->
<g id="edge20" class="edge"><title>ApplicationController&#45;&gt;FeedbackController</title>
<path fill="none" stroke="black" d="M1362.85,-614.012C1491.71,-593.523 1740.95,-553.895 1867.62,-533.755"/>
</g>
<!-- ApplicationController&#45;&gt;Admin::BaseController -->
<g id="edge32" class="edge"><title>ApplicationController&#45;&gt;Admin::BaseController</title>
<path fill="none" stroke="black" d="M1273.84,-645.642C1261.11,-676.62 1234.09,-740.338 1206.73,-792.062 1165.99,-869.106 1109.51,-956.232 1084.72,-993.648"/>
</g>
<!-- AccountsController -->
<g id="node34" class="node"><title>AccountsController</title>
<ellipse fill="none" stroke="black" cx="1549.23" cy="-401.019" rx="104.151" ry="18.3848"/>
<text text-anchor="middle" x="1549.23" y="-397.419" font-family="Times Roman,serif" font-size="14.00">AccountsController</text>
</g>
<!-- ApplicationController&#45;&gt;AccountsController -->
<g id="edge64" class="edge"><title>ApplicationController&#45;&gt;AccountsController</title>
<path fill="none" stroke="black" d="M1303.32,-608.472C1353.79,-565.892 1477.73,-461.344 1527.76,-419.133"/>
</g>
</g>
</svg>
