<?xml version="1.0" encoding="UTF-8" standalone="no"?>
<!DOCTYPE svg PUBLIC "-//W3C//DTD SVG 1.1//EN"
 "http://www.w3.org/Graphics/SVG/1.1/DTD/svg11.dtd">
<!-- Generated by graphviz version 2.26.3 (20100126.1600)
 -->
<!-- Title: models_diagram Pages: 1 -->
<svg width="2738pt" height="514pt"
 viewBox="0.00 0.00 2738.00 514.00" xmlns="http://www.w3.org/2000/svg" xmlns:xlink="http://www.w3.org/1999/xlink">
<g id="graph1" class="graph" transform="scale(1 1) rotate(0) translate(4 510)">
<title>models_diagram</title>
<polygon fill="white" stroke="white" points="-4,5 -4,-510 2735,-510 2735,5 -4,5"/>
<!-- _diagram_info -->
<g id="node1" class="node"><title>_diagram_info</title>
<text text-anchor="start" x="8" y="-489.8" font-family="Times Roman,serif" font-size="13.00">Models diagram</text>
<text text-anchor="start" x="8" y="-472.8" font-family="Times Roman,serif" font-size="13.00">Date: Aug 31 2013 &#45; 05:49</text>
<text text-anchor="start" x="8" y="-455.8" font-family="Times Roman,serif" font-size="13.00">Migration version: 104</text>
<text text-anchor="start" x="8" y="-438.8" font-family="Times Roman,serif" font-size="13.00">Generated by RailRoady 1.1.1</text>
<text text-anchor="start" x="8" y="-421.8" font-family="Times Roman,serif" font-size="13.00">http://railroady.prestonlee.com</text>
</g>
<!-- Theme -->
<g id="node2" class="node"><title>Theme</title>
<polygon fill="none" stroke="black" points="255,-373 191,-373 191,-337 255,-337 255,-373"/>
<text text-anchor="middle" x="223" y="-351.4" font-family="Times Roman,serif" font-size="14.00">Theme</text>
</g>
<!-- Content -->
<g id="node3" class="node"><title>Content</title>
<ellipse fill="none" stroke="black" cx="838" cy="-355" rx="51.1176" ry="18.3848"/>
<text text-anchor="middle" x="838" y="-351.4" font-family="Times Roman,serif" font-size="14.00">Content</text>
</g>
<!-- Page -->
<g id="node7" class="node"><title>Page</title>
<ellipse fill="none" stroke="black" cx="775" cy="-263" rx="34.8574" ry="18.3848"/>
<text text-anchor="middle" x="775" y="-259.4" font-family="Times Roman,serif" font-size="14.00">Page</text>
</g>
<!-- Content&#45;&gt;Page -->
<g id="edge18" class="edge"><title>Content&#45;&gt;Page</title>
<path fill="none" stroke="black" d="M831.154,-336.558C826.587,-325.45 819.966,-311.313 812,-300 806.665,-292.424 799.708,-285.011 793.268,-278.834"/>
</g>
<!-- User -->
<g id="node8" class="node"><title>User</title>
<ellipse fill="none" stroke="black" cx="624" cy="-263" rx="33.9411" ry="18.3848"/>
<text text-anchor="middle" x="624" y="-259.4" font-family="Times Roman,serif" font-size="14.00">User</text>
</g>
<!-- Content&#45;&gt;User -->
<g id="edge6" class="edge"><title>Content&#45;&gt;User</title>
<path fill="none" stroke="#ee130f" d="M783.833,-342.962C763.868,-337.164 741.601,-329.02 723,-318 712.992,-312.071 713.628,-306.528 704,-300 690.93,-291.139 675.399,-283.41 661.514,-277.34"/>
<polygon fill="#ee130f" stroke="#ee130f" points="784.09,-343.033 792.526,-350.039 788.908,-344.368 793.727,-345.702 793.727,-345.702 793.727,-345.702 788.908,-344.368 794.928,-341.365 784.09,-343.033 784.09,-343.033"/>
<polygon fill="#ee130f" stroke="#ee130f" points="661.426,-277.303 653.967,-269.264 656.821,-275.356 652.215,-273.409 652.215,-273.409 652.215,-273.409 656.821,-275.356 650.463,-277.554 661.426,-277.303 661.426,-277.303"/>
<text text-anchor="middle" x="765.5" y="-305.4" font-family="Times Roman,serif" font-size="14.00">notify_users</text>
</g>
<!-- Feedback -->
<g id="node9" class="node"><title>Feedback</title>
<ellipse fill="none" stroke="black" cx="811" cy="-95" rx="56.0679" ry="18.3848"/>
<text text-anchor="middle" x="811" y="-91.4" font-family="Times Roman,serif" font-size="14.00">Feedback</text>
</g>
<!-- Content&#45;&gt;Feedback -->
<g id="edge28" class="edge"><title>Content&#45;&gt;Feedback</title>
<path fill="none" stroke="black" d="M836.522,-336.339C835.537,-325.656 834.044,-312.026 832,-300 827.718,-274.811 829.487,-267.299 819,-244 810.497,-225.107 799.342,-225.373 792,-206 783.13,-182.593 787.335,-174.996 786,-150 785.573,-142.011 783.658,-139.649 786,-132 788.043,-125.328 791.739,-118.775 795.674,-113.081"/>
</g>
<!-- Trigger -->
<g id="node10" class="node"><title>Trigger</title>
<ellipse fill="none" stroke="black" cx="390" cy="-95" rx="44.7575" ry="18.3848"/>
<text text-anchor="middle" x="390" y="-91.4" font-family="Times Roman,serif" font-size="14.00">Trigger</text>
</g>
<!-- Content&#45;&gt;Trigger -->
<g id="edge12" class="edge"><title>Content&#45;&gt;Trigger</title>
<path fill="none" stroke="#833a71" d="M779.292,-352.03C710.971,-347.701 603.034,-337.904 568,-318 486.032,-271.43 427.562,-170.859 402.954,-122.313"/>
<ellipse fill="none" stroke="#833a71" cx="783.428" cy="-352.284" rx="4" ry="4"/>
<polygon fill="#833a71" stroke="#833a71" points="402.939,-122.284 402.516,-111.326 400.713,-117.807 398.487,-113.329 398.487,-113.329 398.487,-113.329 400.713,-117.807 394.457,-115.333 402.939,-122.284 402.939,-122.284"/>
</g>
<!-- Article -->
<g id="node11" class="node"><title>Article</title>
<ellipse fill="none" stroke="black" cx="844" cy="-187" rx="43.1335" ry="18.3848"/>
<text text-anchor="middle" x="844" y="-183.4" font-family="Times Roman,serif" font-size="14.00">Article</text>
</g>
<!-- Content&#45;&gt;Article -->
<g id="edge56" class="edge"><title>Content&#45;&gt;Article</title>
<path fill="none" stroke="black" d="M852.468,-337.217C856.339,-331.433 860.001,-324.755 862,-318 873.53,-279.037 860.511,-231.329 851.379,-205.595"/>
</g>
<!-- Redirection -->
<g id="node12" class="node"><title>Redirection</title>
<ellipse fill="none" stroke="black" cx="1034" cy="-187" rx="65.9683" ry="18.3848"/>
<text text-anchor="middle" x="1034" y="-183.4" font-family="Times Roman,serif" font-size="14.00">Redirection</text>
</g>
<!-- Content&#45;&gt;Redirection -->
<g id="edge8" class="edge"><title>Content&#45;&gt;Redirection</title>
<path fill="none" stroke="#bc7429" d="M885.858,-340.887C932.231,-326.26 997.98,-302.685 1015,-282 1030.2,-263.53 1034.37,-236.264 1035.08,-215.674"/>
<ellipse fill="none" stroke="#bc7429" cx="881.836" cy="-342.142" rx="4.00001" ry="4.00001"/>
<polygon fill="#bc7429" stroke="#bc7429" points="1035.08,-215.598 1039.68,-205.641 1035.13,-210.598 1035.18,-205.598 1035.18,-205.598 1035.18,-205.598 1035.13,-210.598 1030.68,-205.556 1035.08,-215.598 1035.08,-215.598"/>
</g>
<!-- Redirect -->
<g id="node16" class="node"><title>Redirect</title>
<ellipse fill="none" stroke="black" cx="955" cy="-263" rx="51.1176" ry="18.3848"/>
<text text-anchor="middle" x="955" y="-259.4" font-family="Times Roman,serif" font-size="14.00">Redirect</text>
</g>
<!-- Content&#45;&gt;Redirect -->
<g id="edge10" class="edge"><title>Content&#45;&gt;Redirect</title>
<path fill="none" stroke="#33661c" d="M870.287,-332.662C876.883,-327.921 883.724,-322.874 890,-318 902.711,-308.128 916.367,-296.705 927.865,-286.836"/>
<polygon fill="#33661c" stroke="#33661c" points="870.273,-332.672 859.515,-334.799 866.198,-335.569 862.123,-338.467 862.123,-338.467 862.123,-338.467 866.198,-335.569 864.731,-342.134 870.273,-332.672 870.273,-332.672"/>
<polygon fill="#33661c" stroke="#33661c" points="927.875,-286.827 938.384,-283.695 931.659,-283.558 935.443,-280.289 935.443,-280.289 935.443,-280.289 931.659,-283.558 932.501,-276.884 927.875,-286.827 927.875,-286.827"/>
</g>
<!-- Notification -->
<g id="node18" class="node"><title>Notification</title>
<ellipse fill="none" stroke="black" cx="569" cy="-187" rx="67.1751" ry="18.3848"/>
<text text-anchor="middle" x="569" y="-183.4" font-family="Times Roman,serif" font-size="14.00">Notification</text>
</g>
<!-- Content&#45;&gt;Notification -->
<g id="edge4" class="edge"><title>Content&#45;&gt;Notification</title>
<path fill="none" stroke="#3443e6" d="M780.132,-350.279C709.42,-343.947 597.461,-331.88 584,-318 558.025,-291.217 559.045,-245.438 563.214,-215.708"/>
<ellipse fill="none" stroke="#3443e6" cx="784.131" cy="-350.632" rx="4" ry="4"/>
<polygon fill="#3443e6" stroke="#3443e6" points="563.261,-215.419 569.292,-206.26 564.055,-210.482 564.849,-205.545 564.849,-205.545 564.849,-205.545 564.055,-210.482 560.406,-204.831 563.261,-215.419 563.261,-215.419"/>
</g>
<!-- Trackback -->
<g id="node4" class="node"><title>Trackback</title>
<ellipse fill="none" stroke="black" cx="903" cy="-19" rx="58.8978" ry="18.3848"/>
<text text-anchor="middle" x="903" y="-15.4" font-family="Times Roman,serif" font-size="14.00">Trackback</text>
</g>
<!-- ConfigManager -->
<g id="node5" class="node"><title>ConfigManager</title>
<polygon fill="none" stroke="black" stroke-dasharray="1,5" points="1468,-477 1348,-477 1348,-441 1468,-441 1468,-477"/>
<text text-anchor="middle" x="1408" y="-455.4" font-family="Times Roman,serif" font-size="14.00">ConfigManager</text>
</g>
<!-- Feedback::States -->
<g id="node6" class="node"><title>Feedback::States</title>
<polygon fill="none" stroke="black" stroke-dasharray="1,5" points="1684,-477 1550,-477 1550,-441 1684,-441 1684,-477"/>
<text text-anchor="middle" x="1617" y="-455.4" font-family="Times Roman,serif" font-size="14.00">Feedback::States</text>
</g>
<!-- User&#45;&gt;Content -->
<g id="edge22" class="edge"><title>User&#45;&gt;Content</title>
<path fill="none" stroke="#c61d46" d="M597.971,-285.98C589.303,-296.348 583.73,-308.393 592,-318 603.993,-331.932 708.846,-343.698 777.736,-350.017"/>
<polygon fill="#c61d46" stroke="#c61d46" points="598.19,-285.747 608.31,-281.524 601.607,-282.097 605.025,-278.448 605.025,-278.448 605.025,-278.448 601.607,-282.097 601.74,-275.372 598.19,-285.747 598.19,-285.747"/>
<polygon fill="#c61d46" stroke="#c61d46" points="778.084,-350.049 787.64,-355.429 783.064,-350.498 788.044,-350.947 788.044,-350.947 788.044,-350.947 783.064,-350.498 788.448,-346.465 778.084,-350.049 778.084,-350.049"/>
<text text-anchor="middle" x="646" y="-305.4" font-family="Times Roman,serif" font-size="14.00">notify_contents</text>
</g>
<!-- User&#45;&gt;Article -->
<g id="edge24" class="edge"><title>User&#45;&gt;Article</title>
<path fill="none" stroke="#afbc4d" d="M660.475,-250.4C698.944,-237.11 759.541,-216.177 800.48,-202.034"/>
<ellipse fill="none" stroke="#afbc4d" cx="656.542" cy="-251.758" rx="4.00001" ry="4.00001"/>
<polygon fill="#afbc4d" stroke="#afbc4d" points="800.73,-201.948 811.652,-202.936 805.456,-200.315 810.182,-198.682 810.182,-198.682 810.182,-198.682 805.456,-200.315 808.713,-194.429 800.73,-201.948 800.73,-201.948"/>
</g>
<!-- User&#45;&gt;Notification -->
<g id="edge20" class="edge"><title>User&#45;&gt;Notification</title>
<path fill="none" stroke="#0ad212" d="M606.779,-239.204C600.888,-231.063 594.262,-221.907 588.223,-213.563"/>
<ellipse fill="none" stroke="#0ad212" cx="609.175" cy="-242.514" rx="4.00002" ry="4.00002"/>
<polygon fill="#0ad212" stroke="#0ad212" points="588.061,-213.338 585.843,-202.599 585.129,-209.288 582.198,-205.237 582.198,-205.237 582.198,-205.237 585.129,-209.288 578.552,-207.875 588.061,-213.338 588.061,-213.338"/>
</g>
<!-- Feedback&#45;&gt;Trackback -->
<g id="edge16" class="edge"><title>Feedback&#45;&gt;Trackback</title>
<path fill="none" stroke="black" d="M831.876,-77.7544C846.827,-65.4042 866.884,-48.8347 881.888,-36.4404"/>
</g>
<!-- Comment -->
<g id="node32" class="node"><title>Comment</title>
<ellipse fill="none" stroke="black" cx="727" cy="-19" rx="58.1882" ry="18.3848"/>
<text text-anchor="middle" x="727" y="-15.4" font-family="Times Roman,serif" font-size="14.00">Comment</text>
</g>
<!-- Feedback&#45;&gt;Comment -->
<g id="edge104" class="edge"><title>Feedback&#45;&gt;Comment</title>
<path fill="none" stroke="black" d="M791.518,-77.373C777.947,-65.0951 759.924,-48.7884 746.377,-36.5314"/>
</g>
<!-- Article&#45;&gt;Trackback -->
<g id="edge36" class="edge"><title>Article&#45;&gt;Trackback</title>
<path fill="none" stroke="#73711f" d="M891.6,-177.488C947.825,-165.128 1036.02,-141.804 1054,-114 1063.17,-99.8175 1063.6,-89.8919 1054,-76 1042.7,-59.6557 997.575,-43.9264 959.571,-33.1472"/>
<ellipse fill="none" stroke="#73711f" cx="887.458" cy="-178.385" rx="4.00001" ry="4.00001"/>
<polygon fill="#73711f" stroke="#73711f" points="959.22,-33.0498 950.785,-26.0425 954.402,-31.7145 949.583,-30.3791 949.583,-30.3791 949.583,-30.3791 954.402,-31.7145 948.381,-34.7156 959.22,-33.0498 959.22,-33.0498"/>
</g>
<!-- Article&#45;&gt;Trackback -->
<g id="edge50" class="edge"><title>Article&#45;&gt;Trackback</title>
<path fill="none" stroke="#924e7f" d="M889.795,-175.908C913.569,-169.126 939.078,-159.874 946,-150 950.592,-143.449 950.432,-138.66 946,-132 934.522,-114.752 914.478,-131.248 903,-114 890.083,-94.5905 891.432,-67.65 895.229,-47.4136"/>
<ellipse fill="none" stroke="#924e7f" cx="885.683" cy="-177.045" rx="4.00001" ry="4.00001"/>
<polygon fill="#924e7f" stroke="#924e7f" points="895.256,-47.2905 901.774,-38.4718 896.316,-42.4041 897.376,-37.5178 897.376,-37.5178 897.376,-37.5178 896.316,-42.4041 892.978,-36.5638 895.256,-47.2905 895.256,-47.2905"/>
<text text-anchor="middle" x="976.5" y="-91.4" font-family="Times Roman,serif" font-size="14.00">published_trackbacks</text>
</g>
<!-- Article&#45;&gt;Feedback -->
<g id="edge38" class="edge"><title>Article&#45;&gt;Feedback</title>
<path fill="none" stroke="#bcfc91" d="M808.288,-168.588C801.729,-163.494 795.771,-157.312 792,-150 787.498,-141.271 789.156,-131.239 792.944,-122.153"/>
<ellipse fill="none" stroke="#bcfc91" cx="811.721" cy="-171.013" rx="4.00002" ry="4.00002"/>
<polygon fill="#bcfc91" stroke="#bcfc91" points="792.995,-122.051 801.514,-115.145 795.245,-117.586 797.495,-113.121 797.495,-113.121 797.495,-113.121 795.245,-117.586 793.476,-111.096 792.995,-122.051 792.995,-122.051"/>
</g>
<!-- Article&#45;&gt;Feedback -->
<g id="edge52" class="edge"><title>Article&#45;&gt;Feedback</title>
<path fill="none" stroke="#f0a165" d="M819.916,-163.866C816.702,-159.576 813.873,-154.893 812,-150 808.869,-141.82 807.852,-132.443 807.838,-123.775"/>
<ellipse fill="none" stroke="#f0a165" cx="822.654" cy="-167.177" rx="4.00002" ry="4.00002"/>
<polygon fill="#f0a165" stroke="#f0a165" points="807.842,-123.675 812.738,-113.863 808.042,-118.679 808.242,-113.683 808.242,-113.683 808.242,-113.683 808.042,-118.679 803.746,-113.503 807.842,-123.675 807.842,-123.675"/>
<text text-anchor="middle" x="879" y="-137.4" font-family="Times Roman,serif" font-size="14.00">published_feedback</text>
</g>
<!-- Article&#45;&gt;Trigger -->
<g id="edge32" class="edge"><title>Article&#45;&gt;Trigger</title>
<path fill="none" stroke="#63b8de" d="M793.8,-182.25C707.908,-173.994 539.416,-157.194 513,-150 482.515,-141.697 449.958,-126.845 426.002,-114.666"/>
<ellipse fill="none" stroke="#63b8de" cx="797.865" cy="-182.64" rx="4" ry="4"/>
<polygon fill="#63b8de" stroke="#63b8de" points="425.823,-114.573 419.009,-105.982 421.382,-112.276 416.942,-109.978 416.942,-109.978 416.942,-109.978 421.382,-112.276 414.874,-113.975 425.823,-114.573 425.823,-114.573"/>
</g>
<!-- Tag -->
<g id="node13" class="node"><title>Tag</title>
<ellipse fill="none" stroke="black" cx="1302" cy="-95" rx="27.7881" ry="18.3848"/>
<text text-anchor="middle" x="1302" y="-91.4" font-family="Times Roman,serif" font-size="14.00">Tag</text>
</g>
<!-- Article&#45;&gt;Tag -->
<g id="edge54" class="edge"><title>Article&#45;&gt;Tag</title>
<path fill="none" stroke="#85a8fb" d="M893.742,-178.032C913.947,-174.585 937.544,-170.807 959,-168 1041.35,-157.225 1063.5,-166.009 1145,-150 1199.64,-139.267 1213.35,-134.805 1265,-114 1267.07,-113.167 1269.18,-112.259 1271.28,-111.305"/>
<polygon fill="#85a8fb" stroke="#85a8fb" points="893.673,-178.043 883.053,-175.31 888.745,-178.894 883.818,-179.744 883.818,-179.744 883.818,-179.744 888.745,-178.894 884.583,-184.179 893.673,-178.043 893.673,-178.043"/>
<polygon fill="#85a8fb" stroke="#85a8fb" points="1271.38,-111.257 1282.34,-110.986 1275.89,-109.093 1280.4,-106.929 1280.4,-106.929 1280.4,-106.929 1275.89,-109.093 1278.45,-102.873 1271.38,-111.257 1271.38,-111.257"/>
</g>
<!-- Categorization -->
<g id="node17" class="node"><title>Categorization</title>
<ellipse fill="none" stroke="black" cx="1404" cy="-19" rx="84.1457" ry="18.3848"/>
<text text-anchor="middle" x="1404" y="-15.4" font-family="Times Roman,serif" font-size="14.00">Categorization</text>
</g>
<!-- Article&#45;&gt;Categorization -->
<g id="edge42" class="edge"><title>Article&#45;&gt;Categorization</title>
<path fill="none" stroke="#c20bd9" d="M892.725,-179.406C938.457,-171.873 1003.27,-160.035 1027,-150 1080.59,-127.335 1081.52,-98.9138 1135,-76 1193.56,-50.9134 1264.16,-36.4924 1318.34,-28.4343"/>
<ellipse fill="none" stroke="#c20bd9" cx="888.655" cy="-180.071" rx="4.00001" ry="4.00001"/>
<polygon fill="#c20bd9" stroke="#c20bd9" points="1318.36,-28.4314 1328.9,-31.4565 1323.31,-27.717 1328.26,-27.0026 1328.26,-27.0026 1328.26,-27.0026 1323.31,-27.717 1327.61,-22.5488 1318.36,-28.4314 1318.36,-28.4314"/>
</g>
<!-- Category -->
<g id="node20" class="node"><title>Category</title>
<ellipse fill="none" stroke="black" cx="1404" cy="-95" rx="56.0679" ry="18.3848"/>
<text text-anchor="middle" x="1404" y="-91.4" font-family="Times Roman,serif" font-size="14.00">Category</text>
</g>
<!-- Article&#45;&gt;Category -->
<g id="edge44" class="edge"><title>Article&#45;&gt;Category</title>
<path fill="none" stroke="#39dab5" d="M893.472,-177.851C913.726,-174.36 937.43,-170.599 959,-168 1063.44,-155.414 1091.16,-166.816 1195,-150 1260.12,-139.454 1275.33,-131.258 1339,-114 1343.4,-112.809 1347.95,-111.543 1352.51,-110.252"/>
<polygon fill="#39dab5" stroke="#39dab5" points="893.379,-177.867 882.753,-175.158 888.453,-178.729 883.528,-179.59 883.528,-179.59 883.528,-179.59 888.453,-178.729 884.304,-184.023 893.379,-177.867 893.379,-177.867"/>
<polygon fill="#39dab5" stroke="#39dab5" points="1352.84,-110.157 1363.7,-111.734 1357.65,-108.782 1362.46,-107.407 1362.46,-107.407 1362.46,-107.407 1357.65,-108.782 1361.22,-103.081 1352.84,-110.157 1352.84,-110.157"/>
</g>
<!-- Ping -->
<g id="node21" class="node"><title>Ping</title>
<ellipse fill="none" stroke="black" cx="486" cy="-95" rx="33.234" ry="18.3848"/>
<text text-anchor="middle" x="486" y="-91.4" font-family="Times Roman,serif" font-size="14.00">Ping</text>
</g>
<!-- Article&#45;&gt;Ping -->
<g id="edge34" class="edge"><title>Article&#45;&gt;Ping</title>
<path fill="none" stroke="#b9b91b" d="M793.534,-182.648C713.241,-175.453 563.165,-160.802 541,-150 526.836,-143.098 514.158,-131.062 504.554,-120.006"/>
<ellipse fill="none" stroke="#b9b91b" cx="797.568" cy="-183.007" rx="4" ry="4"/>
<polygon fill="#b9b91b" stroke="#b9b91b" points="504.491,-119.929 501.597,-109.352 501.308,-116.072 498.126,-112.216 498.126,-112.216 498.126,-112.216 501.308,-116.072 494.655,-115.08 504.491,-119.929 504.491,-119.929"/>
</g>
<!-- Resource -->
<g id="node28" class="node"><title>Resource</title>
<ellipse fill="none" stroke="black" cx="1200" cy="-95" rx="55.8614" ry="18.3848"/>
<text text-anchor="middle" x="1200" y="-91.4" font-family="Times Roman,serif" font-size="14.00">Resource</text>
</g>
<!-- Article&#45;&gt;Resource -->
<g id="edge40" class="edge"><title>Article&#45;&gt;Resource</title>
<path fill="none" stroke="#2dc9cf" d="M891.837,-178.521C912.462,-175.014 936.88,-171.062 959,-168 1030.32,-158.128 1052.53,-175.149 1120,-150 1122.78,-148.965 1146.64,-132.471 1167.59,-117.814"/>
<ellipse fill="none" stroke="#2dc9cf" cx="887.78" cy="-179.215" rx="4.00001" ry="4.00001"/>
<polygon fill="#2dc9cf" stroke="#2dc9cf" points="1167.83,-117.645 1178.6,-115.591 1171.93,-114.775 1176.02,-111.906 1176.02,-111.906 1176.02,-111.906 1171.93,-114.775 1173.44,-108.221 1167.83,-117.645 1167.83,-117.645"/>
</g>
<!-- Article&#45;&gt;Comment -->
<g id="edge46" class="edge"><title>Article&#45;&gt;Comment</title>
<path fill="none" stroke="#091baa" d="M807.085,-169.358C785.508,-157.003 759.866,-138.348 746,-114 734.482,-93.7755 729.865,-67.6587 728.053,-47.9284"/>
<ellipse fill="none" stroke="#091baa" cx="810.723" cy="-171.37" rx="4.00002" ry="4.00002"/>
<polygon fill="#091baa" stroke="#091baa" points="728.034,-47.6758 731.797,-37.3757 727.672,-42.689 727.309,-37.7022 727.309,-37.7022 727.309,-37.7022 727.672,-42.689 722.821,-38.0287 728.034,-47.6758 728.034,-47.6758"/>
</g>
<!-- Article&#45;&gt;Comment -->
<g id="edge48" class="edge"><title>Article&#45;&gt;Comment</title>
<path fill="none" stroke="#5a0f57" d="M794.895,-180.245C727.089,-169.797 610.269,-147.375 585,-114 574.806,-100.535 575.54,-89.9909 585,-76 602.503,-50.1136 633.902,-35.9818 662.732,-28.2678"/>
<ellipse fill="none" stroke="#5a0f57" cx="798.957" cy="-180.861" rx="4.00001" ry="4.00001"/>
<polygon fill="#5a0f57" stroke="#5a0f57" points="663.083,-28.1817 673.867,-30.1685 667.939,-26.9899 672.795,-25.7982 672.795,-25.7982 672.795,-25.7982 667.939,-26.9899 671.722,-21.4279 663.083,-28.1817 663.083,-28.1817"/>
<text text-anchor="middle" x="657" y="-91.4" font-family="Times Roman,serif" font-size="14.00">published_comments</text>
</g>
<!-- EmailNotifier -->
<g id="node14" class="node"><title>EmailNotifier</title>
<polygon fill="none" stroke="black" points="1853,-373 1749,-373 1749,-337 1853,-337 1853,-373"/>
<text text-anchor="middle" x="1801" y="-351.4" font-family="Times Roman,serif" font-size="14.00">EmailNotifier</text>
</g>
<!-- Sidebar -->
<g id="node15" class="node"><title>Sidebar</title>
<ellipse fill="none" stroke="black" cx="983" cy="-355" rx="48.0833" ry="18.3848"/>
<text text-anchor="middle" x="983" y="-351.4" font-family="Times Roman,serif" font-size="14.00">Sidebar</text>
</g>
<!-- Redirect&#45;&gt;Redirection -->
<g id="edge66" class="edge"><title>Redirect&#45;&gt;Redirection</title>
<path fill="none" stroke="#29909c" d="M979.212,-239.708C988.336,-230.929 998.749,-220.913 1008.03,-211.986"/>
<ellipse fill="none" stroke="#29909c" cx="976.205" cy="-242.6" rx="4.00002" ry="4.00002"/>
<polygon fill="#29909c" stroke="#29909c" points="1008.3,-211.728 1018.62,-208.038 1011.9,-208.261 1015.5,-204.795 1015.5,-204.795 1015.5,-204.795 1011.9,-208.261 1012.38,-201.552 1008.3,-211.728 1008.3,-211.728"/>
</g>
<!-- PostType -->
<g id="node19" class="node"><title>PostType</title>
<ellipse fill="none" stroke="black" cx="1217" cy="-355" rx="53.9477" ry="18.3848"/>
<text text-anchor="middle" x="1217" y="-351.4" font-family="Times Roman,serif" font-size="14.00">PostType</text>
</g>
<!-- Category&#45;&gt;Categorization -->
<g id="edge78" class="edge"><title>Category&#45;&gt;Categorization</title>
<path fill="none" stroke="#627510" d="M1404,-68.0731C1404,-61.4485 1404,-54.332 1404,-47.6302"/>
<ellipse fill="none" stroke="#627510" cx="1404" cy="-72.2135" rx="4" ry="4"/>
<polygon fill="#627510" stroke="#627510" points="1404,-47.5704 1408.5,-37.5704 1404,-42.5704 1404,-37.5704 1404,-37.5704 1404,-37.5704 1404,-42.5704 1399.5,-37.5705 1404,-47.5704 1404,-47.5704"/>
</g>
<!-- Category&#45;&gt;Category -->
<g id="edge76" class="edge"><title>Category&#45;&gt;Category</title>
<path fill="none" stroke="#a1e5e4" d="M1463.92,-101.381C1472.35,-100.341 1478,-98.2146 1478,-95 1478,-92.0776 1473.33,-90.0542 1466.15,-88.9298"/>
<ellipse fill="none" stroke="#a1e5e4" cx="1459.86" cy="-101.7" rx="4" ry="4"/>
<polygon fill="#a1e5e4" stroke="#a1e5e4" points="1465.83,-88.9003 1456.28,-83.5052 1460.85,-88.4433 1455.87,-87.9863 1455.87,-87.9863 1455.87,-87.9863 1460.85,-88.4433 1455.46,-92.4675 1465.83,-88.9003 1465.83,-88.9003"/>
<text text-anchor="middle" x="1505.5" y="-91.4" font-family="Times Roman,serif" font-size="14.00">children</text>
</g>
<!-- BlogSweeper -->
<g id="node22" class="node"><title>BlogSweeper</title>
<polygon fill="none" stroke="black" points="2243,-373 2137,-373 2137,-337 2243,-337 2243,-373"/>
<text text-anchor="middle" x="2190" y="-351.4" font-family="Times Roman,serif" font-size="14.00">BlogSweeper</text>
</g>
<!-- TextFilter -->
<g id="node23" class="node"><title>TextFilter</title>
<ellipse fill="none" stroke="black" cx="1422" cy="-355" rx="56.7776" ry="18.3848"/>
<text text-anchor="middle" x="1422" y="-351.4" font-family="Times Roman,serif" font-size="14.00">TextFilter</text>
</g>
<!-- PageCache -->
<g id="node24" class="node"><title>PageCache</title>
<polygon fill="none" stroke="black" points="365,-373 273,-373 273,-337 365,-337 365,-373"/>
<text text-anchor="middle" x="319" y="-351.4" font-family="Times Roman,serif" font-size="14.00">PageCache</text>
</g>
<!-- Blog -->
<g id="node25" class="node"><title>Blog</title>
<ellipse fill="none" stroke="black" cx="1530" cy="-355" rx="33.234" ry="18.3848"/>
<text text-anchor="middle" x="1530" y="-351.4" font-family="Times Roman,serif" font-size="14.00">Blog</text>
</g>
<!-- Profile -->
<g id="node26" class="node"><title>Profile</title>
<ellipse fill="none" stroke="black" cx="1669" cy="-263" rx="41.9273" ry="18.3848"/>
<text text-anchor="middle" x="1669" y="-259.4" font-family="Times Roman,serif" font-size="14.00">Profile</text>
</g>
<!-- WebNotifier -->
<g id="node27" class="node"><title>WebNotifier</title>
<polygon fill="none" stroke="black" points="1969,-373 1871,-373 1871,-337 1969,-337 1969,-373"/>
<text text-anchor="middle" x="1920" y="-351.4" font-family="Times Roman,serif" font-size="14.00">WebNotifier</text>
</g>
<!-- NotificationMailer -->
<g id="node29" class="node"><title>NotificationMailer</title>
<polygon fill="none" stroke="black" points="2564,-373 2428,-373 2428,-337 2564,-337 2564,-373"/>
<text text-anchor="middle" x="2496" y="-351.4" font-family="Times Roman,serif" font-size="14.00">NotificationMailer</text>
</g>
<!-- Article::States -->
<g id="node30" class="node"><title>Article::States</title>
<polygon fill="none" stroke="black" stroke-dasharray="1,5" points="2730,-477 2616,-477 2616,-441 2730,-441 2730,-477"/>
<text text-anchor="middle" x="2673" y="-455.4" font-family="Times Roman,serif" font-size="14.00">Article::States</text>
</g>
<!-- Right -->
<g id="node31" class="node"><title>Right</title>
<ellipse fill="none" stroke="black" cx="1694" cy="-355" rx="36.977" ry="18.3848"/>
<text text-anchor="middle" x="1694" y="-351.4" font-family="Times Roman,serif" font-size="14.00">Right</text>
</g>
<!-- Right&#45;&gt;Profile -->
<g id="edge100" class="edge"><title>Right&#45;&gt;Profile</title>
<path fill="none" stroke="#a47220" d="M1686.21,-326.342C1683.18,-315.169 1679.71,-302.397 1676.68,-291.262"/>
<polygon fill="#a47220" stroke="#a47220" points="1686.32,-326.732 1684.6,-337.562 1687.63,-331.557 1688.94,-336.382 1688.94,-336.382 1688.94,-336.382 1687.63,-331.557 1693.28,-335.202 1686.32,-326.732 1686.32,-326.732"/>
<polygon fill="#a47220" stroke="#a47220" points="1676.67,-291.24 1678.39,-280.41 1675.36,-286.415 1674.05,-281.59 1674.05,-281.59 1674.05,-281.59 1675.36,-286.415 1669.71,-282.77 1676.67,-291.24 1676.67,-291.24"/>
</g>
<!-- Object -->
<g id="node33" class="node"><title>Object</title>
<ellipse fill="none" stroke="black" cx="271" cy="-459" rx="43.1335" ry="18.3848"/>
<text text-anchor="middle" x="271" y="-455.4" font-family="Times Roman,serif" font-size="14.00">Object</text>
</g>
<!-- Object&#45;&gt;Theme -->
<g id="edge2" class="edge"><title>Object&#45;&gt;Theme</title>
<path fill="none" stroke="black" d="M262.419,-440.407C253.628,-421.36 240.051,-391.943 231.346,-373.084"/>
</g>
<!-- Object&#45;&gt;PageCache -->
<g id="edge88" class="edge"><title>Object&#45;&gt;PageCache</title>
<path fill="none" stroke="black" d="M279.581,-440.407C288.372,-421.36 301.949,-391.943 310.654,-373.084"/>
</g>
<!-- ActiveRecord::Base -->
<g id="node40" class="node"><title>ActiveRecord::Base</title>
<ellipse fill="none" stroke="black" cx="1135" cy="-459" rx="104.151" ry="18.3848"/>
<text text-anchor="middle" x="1135" y="-455.4" font-family="Times Roman,serif" font-size="14.00">ActiveRecord::Base</text>
</g>
<!-- ActiveRecord::Base&#45;&gt;Content -->
<g id="edge14" class="edge"><title>ActiveRecord::Base&#45;&gt;Content</title>
<path fill="none" stroke="black" d="M1087.61,-442.406C1028.49,-421.703 928.648,-386.742 874.9,-367.921"/>
</g>
<!-- ActiveRecord::Base&#45;&gt;User -->
<g id="edge26" class="edge"><title>ActiveRecord::Base&#45;&gt;User</title>
<path fill="none" stroke="black" d="M1045.46,-449.496C903.985,-432.401 639.089,-391.24 584,-318 573.709,-304.318 587.908,-288.491 602.157,-277.337"/>
</g>
<!-- ActiveRecord::Base&#45;&gt;Trigger -->
<g id="edge30" class="edge"><title>ActiveRecord::Base&#45;&gt;Trigger</title>
<path fill="none" stroke="black" d="M1033,-455.096C829.613,-445.944 393,-418.86 393,-355 393,-355 393,-355 393,-187 393,-161.591 391.843,-132.255 390.966,-113.672"/>
</g>
<!-- ActiveRecord::Base&#45;&gt;Redirection -->
<g id="edge58" class="edge"><title>ActiveRecord::Base&#45;&gt;Redirection</title>
<path fill="none" stroke="black" d="M1128.42,-440.336C1114.29,-400.459 1079.87,-304.059 1049,-224 1046.66,-217.921 1044.01,-211.317 1041.6,-205.394"/>
</g>
<!-- ActiveRecord::Base&#45;&gt;Tag -->
<g id="edge60" class="edge"><title>ActiveRecord::Base&#45;&gt;Tag</title>
<path fill="none" stroke="black" d="M1201.23,-444.724C1246.75,-430.573 1299,-403.718 1299,-355 1299,-355 1299,-355 1299,-187 1299,-161.591 1300.16,-132.255 1301.03,-113.672"/>
</g>
<!-- ActiveRecord::Base&#45;&gt;Sidebar -->
<g id="edge64" class="edge"><title>ActiveRecord::Base&#45;&gt;Sidebar</title>
<path fill="none" stroke="black" d="M1108.52,-440.885C1079.77,-421.214 1034.28,-390.086 1006.68,-371.2"/>
</g>
<!-- ActiveRecord::Base&#45;&gt;Redirect -->
<g id="edge68" class="edge"><title>ActiveRecord::Base&#45;&gt;Redirect</title>
<path fill="none" stroke="black" d="M1120.02,-440.651C1109.54,-427.709 1095.26,-409.914 1083,-394 1063.42,-368.578 1061.86,-359.489 1040,-336 1020.38,-314.927 995.04,-293.821 977.147,-279.763"/>
</g>
<!-- ActiveRecord::Base&#45;&gt;Categorization -->
<g id="edge70" class="edge"><title>ActiveRecord::Base&#45;&gt;Categorization</title>
<path fill="none" stroke="black" d="M1195.93,-443.875C1236.36,-434.108 1290.68,-421.497 1339,-412 1395.34,-400.928 1591,-412.415 1591,-355 1591,-355 1591,-355 1591,-95 1591,-67.3152 1519.77,-44.8539 1465.23,-31.714"/>
</g>
<!-- ActiveRecord::Base&#45;&gt;Notification -->
<g id="edge72" class="edge"><title>ActiveRecord::Base&#45;&gt;Notification</title>
<path fill="none" stroke="black" d="M1042.53,-450.51C911.071,-437.391 677.606,-409.91 601,-374 566.777,-357.958 552.618,-352.418 537,-318 519.78,-280.051 541.977,-231.542 557.102,-205.504"/>
</g>
<!-- ActiveRecord::Base&#45;&gt;PostType -->
<g id="edge74" class="edge"><title>ActiveRecord::Base&#45;&gt;PostType</title>
<path fill="none" stroke="black" d="M1149.66,-440.407C1164.68,-421.36 1187.87,-391.943 1202.74,-373.084"/>
</g>
<!-- ActiveRecord::Base&#45;&gt;Category -->
<g id="edge80" class="edge"><title>ActiveRecord::Base&#45;&gt;Category</title>
<path fill="none" stroke="black" d="M1220.96,-448.5C1275.94,-436.426 1337,-410.518 1337,-355 1337,-355 1337,-355 1337,-187 1337,-156.176 1361.88,-128.756 1381.32,-112.037"/>
</g>
<!-- ActiveRecord::Base&#45;&gt;Ping -->
<g id="edge82" class="edge"><title>ActiveRecord::Base&#45;&gt;Ping</title>
<path fill="none" stroke="black" d="M1034.11,-454.247C840.531,-443.772 436,-414.735 436,-355 436,-355 436,-355 436,-225 436,-182.441 459.633,-136.955 474.403,-112.683"/>
</g>
<!-- ActiveRecord::Base&#45;&gt;TextFilter -->
<g id="edge86" class="edge"><title>ActiveRecord::Base&#45;&gt;TextFilter</title>
<path fill="none" stroke="black" d="M1197.19,-444.001C1241.01,-432.54 1300.63,-415.138 1351,-394 1366.17,-387.633 1382.31,-378.94 1395.35,-371.376"/>
</g>
<!-- ActiveRecord::Base&#45;&gt;Blog -->
<g id="edge90" class="edge"><title>ActiveRecord::Base&#45;&gt;Blog</title>
<path fill="none" stroke="black" d="M1198.86,-444.312C1292.98,-422.558 1460.8,-383.335 1488,-374 1493.6,-372.078 1499.47,-369.679 1504.99,-367.24"/>
</g>
<!-- ActiveRecord::Base&#45;&gt;Profile -->
<g id="edge92" class="edge"><title>ActiveRecord::Base&#45;&gt;Profile</title>
<path fill="none" stroke="black" d="M1191.69,-443.386C1232.37,-432.811 1288.67,-419.453 1339,-412 1368.3,-407.661 1580.42,-410.529 1605,-394 1625.06,-380.512 1650.81,-314.229 1662.6,-281.439"/>
</g>
<!-- ActiveRecord::Base&#45;&gt;Resource -->
<g id="edge96" class="edge"><title>ActiveRecord::Base&#45;&gt;Resource</title>
<path fill="none" stroke="black" d="M1137.69,-440.212C1141.2,-416.058 1147.64,-372.836 1154,-336 1168.35,-252.89 1188.02,-154.173 1196.2,-113.708"/>
</g>
<!-- ActiveRecord::Base&#45;&gt;Right -->
<g id="edge102" class="edge"><title>ActiveRecord::Base&#45;&gt;Right</title>
<path fill="none" stroke="black" d="M1191.24,-443.369C1231.94,-432.714 1288.46,-419.267 1339,-412 1405.99,-402.37 1579.57,-417.586 1643,-394 1655.75,-389.261 1667.93,-380.181 1677.18,-371.975"/>
</g>
<!-- ActiveRecord::Observer -->
<g id="node65" class="node"><title>ActiveRecord::Observer</title>
<ellipse fill="none" stroke="black" cx="1860" cy="-459" rx="125.865" ry="18.3848"/>
<text text-anchor="middle" x="1860" y="-455.4" font-family="Times Roman,serif" font-size="14.00">ActiveRecord::Observer</text>
</g>
<!-- ActiveRecord::Observer&#45;&gt;EmailNotifier -->
<g id="edge62" class="edge"><title>ActiveRecord::Observer&#45;&gt;EmailNotifier</title>
<path fill="none" stroke="black" d="M1849.45,-440.407C1838.65,-421.36 1821.96,-391.943 1811.26,-373.084"/>
</g>
<!-- ActiveRecord::Observer&#45;&gt;WebNotifier -->
<g id="edge94" class="edge"><title>ActiveRecord::Observer&#45;&gt;WebNotifier</title>
<path fill="none" stroke="black" d="M1870.73,-440.407C1881.72,-421.36 1898.69,-391.943 1909.57,-373.084"/>
</g>
<!-- ActionController::Caching::Sweeper -->
<g id="node77" class="node"><title>ActionController::Caching::Sweeper</title>
<ellipse fill="none" stroke="black" cx="2190" cy="-459" rx="185.969" ry="18.3848"/>
<text text-anchor="middle" x="2190" y="-455.4" font-family="Times Roman,serif" font-size="14.00">ActionController::Caching::Sweeper</text>
</g>
<!-- ActionController::Caching::Sweeper&#45;&gt;BlogSweeper -->
<g id="edge84" class="edge"><title>ActionController::Caching::Sweeper&#45;&gt;BlogSweeper</title>
<path fill="none" stroke="black" d="M2190,-440.407C2190,-421.36 2190,-391.943 2190,-373.084"/>
</g>
<!-- ActionMailer::Base -->
<g id="node85" class="node"><title>ActionMailer::Base</title>
<ellipse fill="none" stroke="black" cx="2496" cy="-459" rx="101.823" ry="18.3848"/>
<text text-anchor="middle" x="2496" y="-455.4" font-family="Times Roman,serif" font-size="14.00">ActionMailer::Base</text>
</g>
<!-- ActionMailer::Base&#45;&gt;NotificationMailer -->
<g id="edge98" class="edge"><title>ActionMailer::Base&#45;&gt;NotificationMailer</title>
<path fill="none" stroke="black" d="M2496,-440.407C2496,-421.36 2496,-391.943 2496,-373.084"/>
</g>
</g>
</svg>
